<mxfile host="app.diagrams.net" agent="Mozilla/5.0 (Windows NT 10.0; Win64; x64) AppleWebKit/537.36 (KHTML, like Gecko) Chrome/130.0.0.0 Safari/537.36" version="24.8.3">
  <diagram id="C5RBs43oDa-KdzZeNtuy" name="Page-1">
    <mxGraphModel dx="1877" dy="557" grid="1" gridSize="10" guides="1" tooltips="1" connect="1" arrows="1" fold="1" page="1" pageScale="1" pageWidth="827" pageHeight="1169" math="0" shadow="0">
      <root>
        <mxCell id="WIyWlLk6GJQsqaUBKTNV-0" />
        <mxCell id="WIyWlLk6GJQsqaUBKTNV-1" parent="WIyWlLk6GJQsqaUBKTNV-0" />
        <mxCell id="WIyWlLk6GJQsqaUBKTNV-2" value="" style="rounded=0;html=1;jettySize=auto;orthogonalLoop=1;fontSize=11;endArrow=block;endFill=0;endSize=8;strokeWidth=1;shadow=0;labelBackgroundColor=none;edgeStyle=orthogonalEdgeStyle;" parent="WIyWlLk6GJQsqaUBKTNV-1" source="WIyWlLk6GJQsqaUBKTNV-3" edge="1">
          <mxGeometry relative="1" as="geometry">
            <mxPoint x="220" y="170" as="targetPoint" />
          </mxGeometry>
        </mxCell>
        <mxCell id="WIyWlLk6GJQsqaUBKTNV-3" value="1.Початок" style="rounded=1;whiteSpace=wrap;html=1;fontSize=12;glass=0;strokeWidth=1;shadow=0;" parent="WIyWlLk6GJQsqaUBKTNV-1" vertex="1">
          <mxGeometry x="160" y="80" width="120" height="40" as="geometry" />
        </mxCell>
        <mxCell id="3JSrZ1omOIt6DNmDcH5J-2" value="" style="edgeStyle=orthogonalEdgeStyle;rounded=0;orthogonalLoop=1;jettySize=auto;html=1;" edge="1" parent="WIyWlLk6GJQsqaUBKTNV-1" source="3JSrZ1omOIt6DNmDcH5J-0" target="3JSrZ1omOIt6DNmDcH5J-1">
          <mxGeometry relative="1" as="geometry" />
        </mxCell>
        <mxCell id="3JSrZ1omOIt6DNmDcH5J-0" value="&lt;br&gt;2.Створити структуру &lt;code&gt;Book&lt;/code&gt;&lt;div&gt;&lt;br/&gt;&lt;/div&gt;" style="rounded=1;whiteSpace=wrap;html=1;" vertex="1" parent="WIyWlLk6GJQsqaUBKTNV-1">
          <mxGeometry x="160" y="180" width="120" height="40" as="geometry" />
        </mxCell>
        <mxCell id="3JSrZ1omOIt6DNmDcH5J-4" value="" style="edgeStyle=orthogonalEdgeStyle;rounded=0;orthogonalLoop=1;jettySize=auto;html=1;" edge="1" parent="WIyWlLk6GJQsqaUBKTNV-1" source="3JSrZ1omOIt6DNmDcH5J-1" target="3JSrZ1omOIt6DNmDcH5J-3">
          <mxGeometry relative="1" as="geometry" />
        </mxCell>
        <mxCell id="3JSrZ1omOIt6DNmDcH5J-1" value="&lt;br&gt;3.Ініціалізувати динамічний масив для зберігання книг&lt;div&gt;&lt;br/&gt;&lt;/div&gt;" style="rounded=1;whiteSpace=wrap;html=1;" vertex="1" parent="WIyWlLk6GJQsqaUBKTNV-1">
          <mxGeometry x="160" y="270" width="120" height="60" as="geometry" />
        </mxCell>
        <mxCell id="3JSrZ1omOIt6DNmDcH5J-6" value="" style="edgeStyle=orthogonalEdgeStyle;rounded=0;orthogonalLoop=1;jettySize=auto;html=1;" edge="1" parent="WIyWlLk6GJQsqaUBKTNV-1" source="3JSrZ1omOIt6DNmDcH5J-3" target="3JSrZ1omOIt6DNmDcH5J-5">
          <mxGeometry relative="1" as="geometry">
            <Array as="points">
              <mxPoint x="520" y="410" />
              <mxPoint x="520" y="550" />
            </Array>
          </mxGeometry>
        </mxCell>
        <mxCell id="3JSrZ1omOIt6DNmDcH5J-8" value="" style="edgeStyle=orthogonalEdgeStyle;rounded=0;orthogonalLoop=1;jettySize=auto;html=1;" edge="1" parent="WIyWlLk6GJQsqaUBKTNV-1" source="3JSrZ1omOIt6DNmDcH5J-3" target="3JSrZ1omOIt6DNmDcH5J-7">
          <mxGeometry relative="1" as="geometry">
            <Array as="points">
              <mxPoint x="-60" y="410" />
              <mxPoint x="-60" y="550" />
            </Array>
          </mxGeometry>
        </mxCell>
        <mxCell id="3JSrZ1omOIt6DNmDcH5J-10" value="" style="edgeStyle=orthogonalEdgeStyle;rounded=0;orthogonalLoop=1;jettySize=auto;html=1;" edge="1" parent="WIyWlLk6GJQsqaUBKTNV-1" source="3JSrZ1omOIt6DNmDcH5J-3" target="3JSrZ1omOIt6DNmDcH5J-9">
          <mxGeometry relative="1" as="geometry" />
        </mxCell>
        <mxCell id="3JSrZ1omOIt6DNmDcH5J-17" value="" style="edgeStyle=orthogonalEdgeStyle;rounded=0;orthogonalLoop=1;jettySize=auto;html=1;" edge="1" parent="WIyWlLk6GJQsqaUBKTNV-1" source="3JSrZ1omOIt6DNmDcH5J-3" target="3JSrZ1omOIt6DNmDcH5J-16">
          <mxGeometry relative="1" as="geometry" />
        </mxCell>
        <mxCell id="3JSrZ1omOIt6DNmDcH5J-19" value="" style="edgeStyle=orthogonalEdgeStyle;rounded=0;orthogonalLoop=1;jettySize=auto;html=1;" edge="1" parent="WIyWlLk6GJQsqaUBKTNV-1" source="3JSrZ1omOIt6DNmDcH5J-3" target="3JSrZ1omOIt6DNmDcH5J-18">
          <mxGeometry relative="1" as="geometry" />
        </mxCell>
        <mxCell id="3JSrZ1omOIt6DNmDcH5J-3" value="&lt;p&gt;&lt;strong&gt;4.Головне меню&lt;br&gt;&lt;/strong&gt;&lt;span style=&quot;background-color: initial;&quot;&gt;У меню користувач обирає дію&lt;/span&gt;&lt;/p&gt;" style="rounded=1;whiteSpace=wrap;html=1;" vertex="1" parent="WIyWlLk6GJQsqaUBKTNV-1">
          <mxGeometry x="160" y="380" width="120" height="60" as="geometry" />
        </mxCell>
        <mxCell id="3JSrZ1omOIt6DNmDcH5J-15" value="" style="edgeStyle=orthogonalEdgeStyle;rounded=0;orthogonalLoop=1;jettySize=auto;html=1;" edge="1" parent="WIyWlLk6GJQsqaUBKTNV-1" source="3JSrZ1omOIt6DNmDcH5J-5" target="3JSrZ1omOIt6DNmDcH5J-14">
          <mxGeometry relative="1" as="geometry" />
        </mxCell>
        <mxCell id="3JSrZ1omOIt6DNmDcH5J-5" value="&#xa;Додати книгу&#xa;&#xa;" style="whiteSpace=wrap;html=1;rounded=1;" vertex="1" parent="WIyWlLk6GJQsqaUBKTNV-1">
          <mxGeometry x="350" y="520" width="120" height="60" as="geometry" />
        </mxCell>
        <mxCell id="3JSrZ1omOIt6DNmDcH5J-12" value="" style="edgeStyle=orthogonalEdgeStyle;rounded=0;orthogonalLoop=1;jettySize=auto;html=1;" edge="1" parent="WIyWlLk6GJQsqaUBKTNV-1" source="3JSrZ1omOIt6DNmDcH5J-7" target="3JSrZ1omOIt6DNmDcH5J-11">
          <mxGeometry relative="1" as="geometry" />
        </mxCell>
        <mxCell id="3JSrZ1omOIt6DNmDcH5J-7" value="&#xa;Видалити книгу&#xa;&#xa;" style="whiteSpace=wrap;html=1;rounded=1;" vertex="1" parent="WIyWlLk6GJQsqaUBKTNV-1">
          <mxGeometry x="-20" y="520" width="120" height="60" as="geometry" />
        </mxCell>
        <mxCell id="3JSrZ1omOIt6DNmDcH5J-21" value="" style="edgeStyle=orthogonalEdgeStyle;rounded=0;orthogonalLoop=1;jettySize=auto;html=1;" edge="1" parent="WIyWlLk6GJQsqaUBKTNV-1" source="3JSrZ1omOIt6DNmDcH5J-9" target="3JSrZ1omOIt6DNmDcH5J-20">
          <mxGeometry relative="1" as="geometry" />
        </mxCell>
        <mxCell id="3JSrZ1omOIt6DNmDcH5J-9" value="&#xa;Редагувати книгу&#xa;&#xa;" style="whiteSpace=wrap;html=1;rounded=1;" vertex="1" parent="WIyWlLk6GJQsqaUBKTNV-1">
          <mxGeometry x="160" y="520" width="120" height="60" as="geometry" />
        </mxCell>
        <mxCell id="3JSrZ1omOIt6DNmDcH5J-11" value="&#xa;Знайти книгу&#xa;&#xa;" style="whiteSpace=wrap;html=1;rounded=1;" vertex="1" parent="WIyWlLk6GJQsqaUBKTNV-1">
          <mxGeometry x="-220" y="520" width="120" height="60" as="geometry" />
        </mxCell>
        <mxCell id="3JSrZ1omOIt6DNmDcH5J-14" value="&#xa;Показати всі книги&#xa;&#xa;" style="whiteSpace=wrap;html=1;rounded=1;" vertex="1" parent="WIyWlLk6GJQsqaUBKTNV-1">
          <mxGeometry x="570" y="520" width="120" height="60" as="geometry" />
        </mxCell>
        <mxCell id="3JSrZ1omOIt6DNmDcH5J-16" value="&#xa;Зберегти дані&#xa;&#xa;" style="whiteSpace=wrap;html=1;rounded=1;" vertex="1" parent="WIyWlLk6GJQsqaUBKTNV-1">
          <mxGeometry x="320" y="430" width="120" height="60" as="geometry" />
        </mxCell>
        <mxCell id="3JSrZ1omOIt6DNmDcH5J-18" value="&#xa;Вийти&#xa;&#xa;" style="whiteSpace=wrap;html=1;rounded=1;" vertex="1" parent="WIyWlLk6GJQsqaUBKTNV-1">
          <mxGeometry y="430" width="120" height="60" as="geometry" />
        </mxCell>
        <mxCell id="3JSrZ1omOIt6DNmDcH5J-23" value="" style="edgeStyle=orthogonalEdgeStyle;rounded=0;orthogonalLoop=1;jettySize=auto;html=1;" edge="1" parent="WIyWlLk6GJQsqaUBKTNV-1" source="3JSrZ1omOIt6DNmDcH5J-20" target="3JSrZ1omOIt6DNmDcH5J-22">
          <mxGeometry relative="1" as="geometry" />
        </mxCell>
        <mxCell id="3JSrZ1omOIt6DNmDcH5J-27" value="" style="edgeStyle=orthogonalEdgeStyle;rounded=0;orthogonalLoop=1;jettySize=auto;html=1;" edge="1" parent="WIyWlLk6GJQsqaUBKTNV-1" source="3JSrZ1omOIt6DNmDcH5J-20" target="3JSrZ1omOIt6DNmDcH5J-26">
          <mxGeometry relative="1" as="geometry" />
        </mxCell>
        <mxCell id="3JSrZ1omOIt6DNmDcH5J-31" value="" style="edgeStyle=orthogonalEdgeStyle;rounded=0;orthogonalLoop=1;jettySize=auto;html=1;" edge="1" parent="WIyWlLk6GJQsqaUBKTNV-1" source="3JSrZ1omOIt6DNmDcH5J-20" target="3JSrZ1omOIt6DNmDcH5J-30">
          <mxGeometry relative="1" as="geometry" />
        </mxCell>
        <mxCell id="3JSrZ1omOIt6DNmDcH5J-35" value="" style="edgeStyle=orthogonalEdgeStyle;rounded=0;orthogonalLoop=1;jettySize=auto;html=1;" edge="1" parent="WIyWlLk6GJQsqaUBKTNV-1" source="3JSrZ1omOIt6DNmDcH5J-20" target="3JSrZ1omOIt6DNmDcH5J-34">
          <mxGeometry relative="1" as="geometry" />
        </mxCell>
        <mxCell id="3JSrZ1omOIt6DNmDcH5J-39" value="" style="edgeStyle=orthogonalEdgeStyle;rounded=0;orthogonalLoop=1;jettySize=auto;html=1;" edge="1" parent="WIyWlLk6GJQsqaUBKTNV-1" source="3JSrZ1omOIt6DNmDcH5J-20" target="3JSrZ1omOIt6DNmDcH5J-38">
          <mxGeometry relative="1" as="geometry" />
        </mxCell>
        <mxCell id="3JSrZ1omOIt6DNmDcH5J-43" value="" style="edgeStyle=orthogonalEdgeStyle;rounded=0;orthogonalLoop=1;jettySize=auto;html=1;" edge="1" parent="WIyWlLk6GJQsqaUBKTNV-1" source="3JSrZ1omOIt6DNmDcH5J-20" target="3JSrZ1omOIt6DNmDcH5J-42">
          <mxGeometry relative="1" as="geometry">
            <Array as="points">
              <mxPoint x="220" y="950" />
              <mxPoint x="380" y="950" />
            </Array>
          </mxGeometry>
        </mxCell>
        <mxCell id="3JSrZ1omOIt6DNmDcH5J-20" value="5.Обробка дій" style="whiteSpace=wrap;html=1;rounded=1;" vertex="1" parent="WIyWlLk6GJQsqaUBKTNV-1">
          <mxGeometry x="160" y="660" width="120" height="60" as="geometry" />
        </mxCell>
        <mxCell id="3JSrZ1omOIt6DNmDcH5J-25" value="" style="edgeStyle=orthogonalEdgeStyle;rounded=0;orthogonalLoop=1;jettySize=auto;html=1;" edge="1" parent="WIyWlLk6GJQsqaUBKTNV-1" source="3JSrZ1omOIt6DNmDcH5J-22" target="3JSrZ1omOIt6DNmDcH5J-24">
          <mxGeometry relative="1" as="geometry" />
        </mxCell>
        <mxCell id="3JSrZ1omOIt6DNmDcH5J-22" value="&#xa;Додати книгу&#xa;&#xa;" style="whiteSpace=wrap;html=1;rounded=1;" vertex="1" parent="WIyWlLk6GJQsqaUBKTNV-1">
          <mxGeometry x="360" y="660" width="120" height="60" as="geometry" />
        </mxCell>
        <mxCell id="3JSrZ1omOIt6DNmDcH5J-24" value="&#xa;виконати функцію додавання.&#xa;&#xa;" style="whiteSpace=wrap;html=1;rounded=1;" vertex="1" parent="WIyWlLk6GJQsqaUBKTNV-1">
          <mxGeometry x="490" y="730" width="120" height="60" as="geometry" />
        </mxCell>
        <mxCell id="3JSrZ1omOIt6DNmDcH5J-29" value="" style="edgeStyle=orthogonalEdgeStyle;rounded=0;orthogonalLoop=1;jettySize=auto;html=1;" edge="1" parent="WIyWlLk6GJQsqaUBKTNV-1" source="3JSrZ1omOIt6DNmDcH5J-26" target="3JSrZ1omOIt6DNmDcH5J-28">
          <mxGeometry relative="1" as="geometry" />
        </mxCell>
        <mxCell id="3JSrZ1omOIt6DNmDcH5J-26" value="&#xa;Видалити книгу&#xa;&#xa;" style="whiteSpace=wrap;html=1;rounded=1;" vertex="1" parent="WIyWlLk6GJQsqaUBKTNV-1">
          <mxGeometry x="-40" y="660" width="120" height="60" as="geometry" />
        </mxCell>
        <mxCell id="3JSrZ1omOIt6DNmDcH5J-28" value="&#xa; виконати функцію видалення.&#xa;&#xa;" style="whiteSpace=wrap;html=1;rounded=1;" vertex="1" parent="WIyWlLk6GJQsqaUBKTNV-1">
          <mxGeometry x="-170" y="730" width="120" height="60" as="geometry" />
        </mxCell>
        <mxCell id="3JSrZ1omOIt6DNmDcH5J-33" value="" style="edgeStyle=orthogonalEdgeStyle;rounded=0;orthogonalLoop=1;jettySize=auto;html=1;" edge="1" parent="WIyWlLk6GJQsqaUBKTNV-1" source="3JSrZ1omOIt6DNmDcH5J-30" target="3JSrZ1omOIt6DNmDcH5J-32">
          <mxGeometry relative="1" as="geometry" />
        </mxCell>
        <mxCell id="3JSrZ1omOIt6DNmDcH5J-30" value="&#xa;Знайти книгу&#xa;&#xa;" style="whiteSpace=wrap;html=1;rounded=1;" vertex="1" parent="WIyWlLk6GJQsqaUBKTNV-1">
          <mxGeometry x="50" y="760" width="120" height="60" as="geometry" />
        </mxCell>
        <mxCell id="3JSrZ1omOIt6DNmDcH5J-32" value="&#xa;виконати функцію пошуку.&#xa;&#xa;" style="whiteSpace=wrap;html=1;rounded=1;" vertex="1" parent="WIyWlLk6GJQsqaUBKTNV-1">
          <mxGeometry x="50" y="860" width="120" height="60" as="geometry" />
        </mxCell>
        <mxCell id="3JSrZ1omOIt6DNmDcH5J-37" value="" style="edgeStyle=orthogonalEdgeStyle;rounded=0;orthogonalLoop=1;jettySize=auto;html=1;" edge="1" parent="WIyWlLk6GJQsqaUBKTNV-1" source="3JSrZ1omOIt6DNmDcH5J-34" target="3JSrZ1omOIt6DNmDcH5J-36">
          <mxGeometry relative="1" as="geometry" />
        </mxCell>
        <mxCell id="3JSrZ1omOIt6DNmDcH5J-34" value="&#xa;Редагувати книгу&#xa;&#xa;" style="whiteSpace=wrap;html=1;rounded=1;" vertex="1" parent="WIyWlLk6GJQsqaUBKTNV-1">
          <mxGeometry x="270" y="760" width="120" height="60" as="geometry" />
        </mxCell>
        <mxCell id="3JSrZ1omOIt6DNmDcH5J-36" value="&#xa;виконати функцію редагування.&#xa;&#xa;" style="whiteSpace=wrap;html=1;rounded=1;" vertex="1" parent="WIyWlLk6GJQsqaUBKTNV-1">
          <mxGeometry x="270" y="860" width="120" height="60" as="geometry" />
        </mxCell>
        <mxCell id="3JSrZ1omOIt6DNmDcH5J-41" value="" style="edgeStyle=orthogonalEdgeStyle;rounded=0;orthogonalLoop=1;jettySize=auto;html=1;" edge="1" parent="WIyWlLk6GJQsqaUBKTNV-1" source="3JSrZ1omOIt6DNmDcH5J-38" target="3JSrZ1omOIt6DNmDcH5J-40">
          <mxGeometry relative="1" as="geometry" />
        </mxCell>
        <mxCell id="3JSrZ1omOIt6DNmDcH5J-38" value="&#xa;&lt;strong&gt;Показати всі книги&lt;/strong&gt;:&#xa;&#xa;" style="whiteSpace=wrap;html=1;rounded=1;" vertex="1" parent="WIyWlLk6GJQsqaUBKTNV-1">
          <mxGeometry x="160" y="970" width="120" height="60" as="geometry" />
        </mxCell>
        <mxCell id="3JSrZ1omOIt6DNmDcH5J-49" value="" style="edgeStyle=orthogonalEdgeStyle;rounded=0;orthogonalLoop=1;jettySize=auto;html=1;" edge="1" parent="WIyWlLk6GJQsqaUBKTNV-1" source="3JSrZ1omOIt6DNmDcH5J-40" target="3JSrZ1omOIt6DNmDcH5J-48">
          <mxGeometry relative="1" as="geometry" />
        </mxCell>
        <mxCell id="3JSrZ1omOIt6DNmDcH5J-40" value="&#xa;виконати функцію відображення&#xa;&#xa;" style="whiteSpace=wrap;html=1;rounded=1;" vertex="1" parent="WIyWlLk6GJQsqaUBKTNV-1">
          <mxGeometry x="160" y="1080" width="120" height="60" as="geometry" />
        </mxCell>
        <mxCell id="3JSrZ1omOIt6DNmDcH5J-47" value="" style="edgeStyle=orthogonalEdgeStyle;rounded=0;orthogonalLoop=1;jettySize=auto;html=1;" edge="1" parent="WIyWlLk6GJQsqaUBKTNV-1" source="3JSrZ1omOIt6DNmDcH5J-42" target="3JSrZ1omOIt6DNmDcH5J-46">
          <mxGeometry relative="1" as="geometry" />
        </mxCell>
        <mxCell id="3JSrZ1omOIt6DNmDcH5J-42" value="&#xa;Зберегти дані&#xa;&#xa;" style="whiteSpace=wrap;html=1;rounded=1;" vertex="1" parent="WIyWlLk6GJQsqaUBKTNV-1">
          <mxGeometry x="320" y="1030" width="120" height="60" as="geometry" />
        </mxCell>
        <mxCell id="3JSrZ1omOIt6DNmDcH5J-46" value="&#xa;виконати функцію збереження даних у файли.&#xa;&#xa;" style="whiteSpace=wrap;html=1;rounded=1;" vertex="1" parent="WIyWlLk6GJQsqaUBKTNV-1">
          <mxGeometry x="320" y="1120" width="120" height="60" as="geometry" />
        </mxCell>
        <mxCell id="3JSrZ1omOIt6DNmDcH5J-53" value="" style="edgeStyle=orthogonalEdgeStyle;rounded=0;orthogonalLoop=1;jettySize=auto;html=1;" edge="1" parent="WIyWlLk6GJQsqaUBKTNV-1" source="3JSrZ1omOIt6DNmDcH5J-48" target="3JSrZ1omOIt6DNmDcH5J-52">
          <mxGeometry relative="1" as="geometry" />
        </mxCell>
        <mxCell id="3JSrZ1omOIt6DNmDcH5J-48" value="6.&lt;br&gt;Перевірка введення користувача, наприклад, правильність року, жанру" style="whiteSpace=wrap;html=1;rounded=1;" vertex="1" parent="WIyWlLk6GJQsqaUBKTNV-1">
          <mxGeometry x="160" y="1220" width="120" height="100" as="geometry" />
        </mxCell>
        <mxCell id="3JSrZ1omOIt6DNmDcH5J-52" value="7.Кінець програми" style="whiteSpace=wrap;html=1;rounded=1;" vertex="1" parent="WIyWlLk6GJQsqaUBKTNV-1">
          <mxGeometry x="160" y="1420" width="120" height="60" as="geometry" />
        </mxCell>
      </root>
    </mxGraphModel>
  </diagram>
</mxfile>
